<svg width="386" height="57" viewBox="0 0 386 57" fill="none" xmlns="http://www.w3.org/2000/svg">
<path d="M81.8547 48.9647C71.4594 51.9068 67.5111 59.1191 74.3054 63.2363C88.2841 71.7088 145.832 67.5236 148.54 61.7806C151.207 56.1226 103.546 42.8238 81.8547 48.9647Z" stroke="#E41E6B" stroke-miterlimit="10"/>
<path d="M107.613 30.1202C131.358 24.4979 171.228 64.5271 154.77 73.9774C144.652 79.7885 120.157 79.0623 100.182 77.1525C81.4294 75.36 54.6346 68.0304 48.024 55.8573C44.5237 49.395 46.6249 40.1878 54.0383 36.9634C59.7757 34.4686 67.5212 35.5911 69.2298 35.1761C77.3754 37.46 78.5708 38.3478 85.0606 38.8835C93.5434 39.5841 101.083 31.666 107.613 30.1202Z" stroke="#E41E6B" stroke-miterlimit="10"/>
<path d="M131.705 10.4321C159.282 13.4082 189.25 71.8755 159.335 85.3308C140.283 93.9002 107.069 90.1163 83.9181 85.5859C62.6519 81.4244 27.241 67.5372 20.0767 47.6348C15.9121 36.0706 20.9726 19.8025 35.4722 15.0969C47.03 11.347 61.9222 14.5714 64.5443 14.8197C80.0428 20.4555 81.296 23.3228 92.8363 25.253C108.116 27.8056 120.18 9.18212 131.705 10.4321Z" stroke="#E41E6B" stroke-miterlimit="10"/>
<path d="M154.051 -9.12502C184.499 -3.63883 205.526 79.3072 162.153 96.8133C134.161 108.111 92.2173 101.334 65.9082 94.1485C42.1079 87.6504 -1.77073 67.2022 -9.61691 39.5416C-14.3503 22.8602 -6.45127 -0.433162 15.1572 -6.64042C32.5204 -11.63 54.695 -6.50947 58.1073 -5.40747C81.9629 2.30144 82.2649 8.42707 98.8732 11.7518C120.935 16.1802 138.104 -11.9923 154.051 -9.12502Z" stroke="#E41E6B" stroke-miterlimit="10"/>
<path d="M175.053 -27.7927C208.772 -19.8781 220.403 87.545 163.628 109.187C126.657 123.154 76.0015 113.459 46.557 103.604C20.195 94.7828 -32.096 67.7753 -40.6644 32.3378C-45.9313 10.5545 -35.229 -19.7726 -6.50914 -27.4917C16.6695 -33.716 45.9505 -26.4152 50.3215 -24.7503C81.0721 -13.0365 81.8673 -5.55373 103.539 -0.858322C132.387 5.44587 154.868 -32.529 175.053 -27.7927Z" stroke="#E41E6B" stroke-miterlimit="10"/>
<path d="M-29.1191 -48.0947C-0.135069 -55.5519 36.2346 -46.0812 41.5921 -43.8432C79.1546 -28.1499 80.5436 -19.3424 107.27 -13.232C142.91 -5.08436 170.838 -52.9585 195.093 -46.224C232.351 -35.8792 234.442 96.1586 164.141 121.797C118.27 138.526 58.8043 125.833 26.242 113.294C-2.67665 102.16 -63.3423 68.5933 -72.653 25.372C-78.4408 -1.51136 -64.9553 -38.8757 -29.1191 -48.0947Z" stroke="#E41E6B" stroke-miterlimit="10"/>
<path d="M284.516 -61.6997C273.099 -61.7643 259.408 -75.1465 269.647 -77.3811C275.561 -78.6736 291.218 -76.6294 297.368 -72.9918C306.029 -67.8729 292.373 -61.6538 284.516 -61.6997Z" stroke="#E41E6B" stroke-miterlimit="10"/>
<path d="M253.489 -75.507C254.606 -77.3029 259.838 -78.1005 264.612 -80.2875C274.295 -84.7261 275.684 -86.8348 282.561 -89.5116C285.244 -90.5575 288.852 -91.9316 292.375 -91.3024C297.77 -90.3381 299.117 -86.1648 305.964 -78.8147C314.842 -69.264 318.204 -66.7947 315.667 -61.7337C315.076 -60.5569 314.311 -56.7458 310.035 -54.421C304.114 -51.2069 297.174 -53.6898 288.497 -51.5623C278.077 -49.0114 272.911 -44.4707 268.389 -46.4774C265.203 -47.8907 265.085 -51.7613 262.699 -58.5008C260.882 -63.635 259.74 -67.0039 257.53 -69.7521C254.881 -73.0241 252.246 -73.5105 253.489 -75.507Z" stroke="#E41E6B" stroke-miterlimit="10"/>
<path d="M236.038 -71.7639C236.232 -74.9475 243.63 -76.4883 249.727 -81.0884C262.231 -90.5252 256.438 -97.2681 266.461 -104.162C270.714 -107.089 277.387 -109.924 284.076 -109.375C293.568 -108.594 296.756 -101.967 311.369 -88.5304C330.474 -70.963 338.612 -67.5226 336.828 -58.1607C336.463 -56.2526 336.108 -48.9263 328.642 -44.5166C318.684 -38.6359 306.749 -43.986 291.16 -39.5661C273.741 -34.6343 267.231 -24.0905 261.358 -26.2724C257.279 -27.7876 258.842 -33.8895 255.706 -45.7904C253.487 -54.2493 252.115 -59.193 247.679 -63.2421C242.08 -68.3491 235.829 -68.3066 236.038 -71.7639Z" stroke="#E41E6B" stroke-miterlimit="10"/>
<path d="M218.569 -68.0617C217.814 -72.6245 227.394 -74.9186 234.825 -81.932C250.125 -96.3702 236.934 -107.656 250.344 -118.856C256.084 -123.648 265.928 -127.935 275.759 -127.488C289.386 -126.869 294.421 -117.839 316.777 -98.2868C346.169 -72.7401 358.826 -68.242 357.996 -54.6285C357.832 -51.9738 357.908 -41.1511 347.256 -34.6479C333.259 -26.1057 316.304 -34.3333 293.832 -27.6074C269.398 -20.2947 261.567 -3.75278 254.325 -6.10304C249.355 -7.72883 252.538 -16.0551 248.71 -33.1174C246.068 -44.901 244.475 -51.3956 237.822 -56.7696C229.246 -63.6945 219.377 -63.1469 218.569 -68.0617Z" stroke="#E41E6B" stroke-miterlimit="10"/>
<path d="M201.06 -64.3696C199.366 -70.3065 211.1 -73.3625 219.882 -82.784C237.945 -102.232 217.328 -118.016 234.188 -133.558C241.395 -140.207 254.435 -145.948 267.405 -145.612C285.176 -145.149 291.978 -133.685 322.134 -108.052C361.72 -74.4815 378.947 -68.9375 379.101 -51.1048C379.131 -47.7036 379.629 -33.3946 365.804 -24.7894C347.751 -13.5959 325.808 -24.6959 296.439 -15.6571C264.984 -5.97377 255.832 16.5815 247.251 14.0578C241.388 12.3266 246.194 1.76915 241.675 -20.4528C238.602 -35.5628 236.798 -43.6 227.927 -50.3055C216.367 -59.0399 202.882 -57.9855 201.06 -64.3696Z" stroke="#E41E6B" stroke-miterlimit="10"/>
<path d="M183.518 -60.6793C186.354 -52.8225 203.45 -54.387 217.993 -43.8432C229.082 -35.8044 231.098 -26.2282 234.601 -7.79006C239.802 19.5899 233.38 32.3803 240.137 34.2153C250.069 36.9141 260.54 8.34373 299.021 -3.70856C335.273 -15.0619 362.248 -1.0658 384.327 -14.9327C401.348 -25.6244 400.402 -43.4197 400.181 -47.5846C399.008 -69.6314 377.239 -76.2264 327.457 -117.82C289.496 -149.535 280.936 -163.429 259.01 -163.737C242.905 -163.963 226.662 -156.764 217.993 -148.261C197.693 -128.364 225.776 -108.074 204.907 -83.6377C194.794 -71.7963 180.878 -67.9886 183.518 -60.6793Z" stroke="#E41E6B" stroke-miterlimit="10"/>
<path d="M328.601 65.7787C325.622 64.7584 319.366 66.7243 318.813 69.7871C318.186 73.2615 325.265 76.1355 328.375 75.2427C332.054 74.1849 332.555 67.129 328.601 65.7787Z" stroke="#E41E6B" stroke-miterlimit="10"/>
<path d="M336.996 84.239C342.074 81.0299 344.294 75.1407 346.833 65.0458C349.349 55.0359 348.954 47.8695 346.742 47.3491C345.537 47.0685 342.122 49.264 339.193 50.8728C333.71 53.8761 324.324 53.5428 321.918 53.8676C313.11 55.058 310.524 57.2689 306.842 61.5034C305.138 63.4591 301.165 67.7957 299.416 72.8975C296.749 80.6235 284.793 83.0043 286.25 86.1011C287.476 88.6861 299.321 89.3136 307.001 89.3868C318.007 89.4922 329.145 89.1946 336.996 84.239Z" stroke="#E41E6B" stroke-miterlimit="10"/>
<path d="M345.799 92.8662C354.146 87.1317 357.429 77.5079 362.487 59.5103C367.626 41.4259 367.593 29.0215 365.062 28.559C363.162 28.2052 357.009 32.6762 351.78 35.8716C341.923 41.9207 324.278 40.9259 320.642 41.3136C304.059 43.0448 299.972 47.1927 293.545 55.0325C290.868 58.2977 283.522 66.2566 280.176 75.6559C275.025 90.0551 250.603 93.8254 252.623 99.1636C254.312 103.609 276.96 104.291 291.21 103.925C311.331 103.396 331.694 102.56 345.799 92.8662Z" stroke="#E41E6B" stroke-miterlimit="10"/>
<path d="M354.553 101.437C366.177 93.1791 370.487 79.814 378.092 53.9186C385.815 27.7546 386.174 10.1413 383.331 9.70251C380.726 9.29436 371.841 16.0288 364.327 20.8195C350.122 29.9297 324.195 28.2546 319.326 28.6933C294.972 30.8905 289.363 37.0349 280.208 48.4971C276.555 53.07 265.842 64.6529 260.892 78.3446C253.265 99.4187 216.375 104.575 218.954 112.156C221.108 118.462 254.564 119.226 275.379 118.391C304.61 117.277 334.228 115.879 354.553 101.437Z" stroke="#E41E6B" stroke-miterlimit="10"/>
<path d="M363.28 110.003C378.187 99.2214 383.52 82.1132 393.671 48.3202C403.988 14.0799 404.743 -8.7373 401.577 -9.16075C398.266 -9.60802 386.643 -0.637238 376.849 5.75199C358.267 17.9029 324.09 15.5646 317.987 16.0662C285.863 18.7005 278.688 26.8567 266.846 41.9531C262.201 47.8304 248.137 63.0408 241.589 81.0265C231.478 108.774 182.119 115.318 185.264 125.142C187.879 133.305 232.142 134.12 259.526 132.851C297.853 131.105 336.745 129.198 363.28 110.003Z" stroke="#E41E6B" stroke-miterlimit="10"/>
<path d="M316.636 3.43403C276.743 6.49515 268.069 16.6989 253.474 35.4057C247.862 42.5976 230.419 61.4252 222.27 83.7033C209.688 118.127 147.853 126.057 151.559 138.123C154.639 148.157 209.709 149.007 243.66 147.306C291.099 144.926 339.256 142.514 371.997 118.566C390.188 105.259 396.54 84.4124 409.24 42.7184C422.132 0.400138 423.281 -27.6159 419.809 -28.0274C415.783 -28.5036 401.439 -17.3135 389.36 -9.32061C366.4 5.86933 323.974 2.87113 316.636 3.43403Z" stroke="#E41E6B" stroke-miterlimit="10"/>
<path d="M-7.72959 -78.3658C-3.20005 -66.6315 29.312 -72.1432 68.0144 -45.7139C81.8824 -36.2431 91.1805 -26.337 109.535 -24.7962C111.387 -24.6415 129.775 -23.2827 142.752 -31.2586C159.078 -41.2923 149.113 -55.2118 168.168 -74.6244C175.186 -81.7755 176.354 -79.699 181.505 -85.3383C203.488 -109.411 169.959 -133.848 189.305 -158.295C198.211 -169.548 211.45 -172.131 210.192 -173.6C204.761 -179.905 -19.9694 -109.985 -7.72959 -78.3658Z" stroke="#E41E6B" stroke-miterlimit="10"/>
<path d="M114.568 -40.8382C115.68 -40.9402 127.804 -40.328 136.121 -45.9673C146.637 -53.0878 139.141 -62.8918 151.189 -76.1277C155.623 -81.0017 156.24 -79.6803 159.395 -83.5356C172.858 -99.9874 148.696 -116.538 160.528 -132.643C166.004 -140.098 174.647 -141.807 173.361 -142.535C167.546 -145.855 19.2111 -96.8141 30.8621 -75.4747C35.2306 -67.4716 59.0786 -70.3116 86.3666 -53.0741C96.2888 -46.8108 103.008 -39.7787 114.568 -40.8382Z" stroke="#E41E6B" stroke-miterlimit="10"/>
<path d="M119.601 -56.8818C119.918 -57.4209 125.847 -57.409 129.49 -60.6759C134.221 -64.9139 129.183 -70.5599 134.211 -77.6294C136.056 -80.2245 136.131 -79.6701 137.289 -81.733C142.259 -90.6051 127.412 -99.217 131.753 -106.992C133.783 -110.652 137.558 -111.276 136.551 -111.472C129.193 -110.766 58.5426 -83.5952 69.4412 -72.5837C73.6965 -68.2811 88.9283 -68.4869 104.706 -60.4344C110.703 -57.3733 114.628 -55.1319 119.601 -56.8818Z" stroke="#E41E6B" stroke-miterlimit="10"/>
<path d="M124.634 -72.9238C120.728 -80.6361 105.353 -83.2584 99.7212 -80.4065C91.417 -76.1958 98.5008 -70.713 108.025 -69.6926C115.144 -68.9358 129.103 -64.0976 124.634 -72.9238Z" stroke="#E41E6B" stroke-miterlimit="10"/>
</svg>
