<svg width="553" height="382" viewBox="0 0 553 382" fill="none" xmlns="http://www.w3.org/2000/svg">
<g filter="url(#filter0_b_9_239)">
<path d="M0 34H476V375H0V34Z" fill="url(#paint0_linear_9_239)" fill-opacity="0.76"/>
</g>
<g filter="url(#filter1_b_9_239)">
<path d="M597 380H535.107C514.12 380 497.107 362.987 497.107 342V50C497.107 29.0132 480.094 12 459.107 12H129" stroke="url(#paint1_linear_9_239)" stroke-width="4"/>
</g>
<path d="M102 23.5L90 11.6667L102 -1.04907e-06L102 10L112 10L122 10L122 14L111.86 14L102 14L102 23.5Z" fill="url(#paint2_linear_9_239)"/>
<defs>
<filter id="filter0_b_9_239" x="-17" y="17" width="510" height="375" filterUnits="userSpaceOnUse" color-interpolation-filters="sRGB">
<feFlood flood-opacity="0" result="BackgroundImageFix"/>
<feGaussianBlur in="BackgroundImageFix" stdDeviation="8.5"/>
<feComposite in2="SourceAlpha" operator="in" result="effect1_backgroundBlur_9_239"/>
<feBlend mode="normal" in="SourceGraphic" in2="effect1_backgroundBlur_9_239" result="shape"/>
</filter>
<filter id="filter1_b_9_239" x="112" y="-7" width="502" height="406" filterUnits="userSpaceOnUse" color-interpolation-filters="sRGB">
<feFlood flood-opacity="0" result="BackgroundImageFix"/>
<feGaussianBlur in="BackgroundImageFix" stdDeviation="8.5"/>
<feComposite in2="SourceAlpha" operator="in" result="effect1_backgroundBlur_9_239"/>
<feBlend mode="normal" in="SourceGraphic" in2="effect1_backgroundBlur_9_239" result="shape"/>
</filter>
<linearGradient id="paint0_linear_9_239" x1="0" y1="197.68" x2="303.137" y2="197.68" gradientUnits="userSpaceOnUse">
<stop stop-color="#222337"/>
<stop offset="1" stop-color="#222337" stop-opacity="0.05"/>
</linearGradient>
<linearGradient id="paint1_linear_9_239" x1="366.996" y1="12" x2="366.996" y2="380" gradientUnits="userSpaceOnUse">
<stop stop-color="#E41E6B"/>
<stop offset="1" stop-color="#080D71" stop-opacity="0.05"/>
</linearGradient>
<linearGradient id="paint2_linear_9_239" x1="122.083" y1="23.3333" x2="100.531" y2="-6.50686" gradientUnits="userSpaceOnUse">
<stop stop-color="#E41E6B"/>
<stop offset="1" stop-color="#B83B6C"/>
</linearGradient>
</defs>
</svg>
