<svg width="122" height="77" viewBox="0 0 122 77" fill="none" xmlns="http://www.w3.org/2000/svg">
<path id="Vector" fill-rule="evenodd" clip-rule="evenodd" d="M5.35564 0.187448C4.72864 0.31839 3.27979 0.839932 2.13597 1.3464C-0.626268 2.5696 -0.632707 2.64594 1.67353 6.7664C2.64563 8.50273 3.70908 10.4236 4.03701 11.0351C4.3647 11.6466 5.24426 13.2428 5.99146 14.5821C6.73843 15.9214 7.73748 17.7559 8.21137 18.6586C8.68526 19.5614 9.271 20.5948 9.51331 20.9555C9.75538 21.3162 9.95357 21.6745 9.95357 21.7516C9.95357 21.8284 10.4365 22.7378 11.0268 23.772C11.6171 24.8062 12.1 25.6847 12.1 25.7243C12.1 25.7638 12.8081 27.0611 13.6734 28.607C15.2147 31.3604 16.8231 34.2668 17.758 35.9881C18.0163 36.4637 18.8165 37.909 19.5363 39.1999C20.2558 40.4908 21.2012 42.214 21.6367 43.0293C22.0724 43.8446 22.9846 45.5123 23.6636 46.7352C24.3429 47.9581 25.1681 49.459 25.4979 50.0705C25.8275 50.682 26.9572 52.7388 28.0085 54.6411C34.1791 65.8082 35.7069 68.576 36.191 69.4647C36.487 70.0082 37.2139 71.3423 37.8063 72.4294C38.399 73.5165 39.1975 74.9897 39.581 75.7029C40.0622 76.5983 40.4267 77 40.7579 77C41.483 77 44.6149 74.6495 46.0919 72.9969C47.5722 71.3406 49.0156 69.1969 49.6344 67.7353C49.8646 67.1917 50.1505 66.5247 50.2698 66.2529C50.804 65.0359 51.1992 63.3571 51.4732 61.1385C52.0754 56.266 50.9147 51.1679 48.1171 46.3965C47.5009 45.3452 46.6752 43.8797 46.2824 43.1395C45.8899 42.3996 45.0809 40.9046 44.4849 39.8175C42.6685 36.5045 41.1586 33.7092 37.0777 26.1057C36.1662 24.4072 35.0148 22.2948 34.5192 21.4116C34.0238 20.5284 33.2988 19.1942 32.9081 18.4469C32.1323 16.9623 31.6754 16.1181 30.0324 13.1351C29.4335 12.048 28.7416 10.7307 28.4946 10.2079C28.0836 9.33804 24.496 5.38706 23.0676 4.23157C21.2839 2.78849 18.9601 1.54282 16.2737 0.589908C15.0831 0.167683 14.1415 0.0713301 10.669 0.0159887C8.37354 -0.0205761 5.9824 0.0565065 5.35564 0.187448ZM46.0854 0.0696006C45.1734 0.294919 43.2206 0.926156 42.7465 1.14876C42.4842 1.27204 41.7598 1.60409 41.1367 1.88648C40.3327 2.25114 40.0038 2.54267 40.0038 2.89053C40.0038 3.16007 40.576 4.40797 41.2755 5.66377C41.9747 6.91933 42.8173 8.44714 43.1476 9.05862C43.478 9.67009 45.0146 12.4495 46.5622 15.2351C48.1097 18.0207 49.587 20.6889 49.8446 21.1645C50.8319 22.9871 53.5035 27.8542 55.3371 31.1705C56.3888 33.0728 57.5181 35.1296 57.8465 35.7411C58.1749 36.3525 58.6948 37.2676 59.002 37.7743C59.3092 38.2813 59.5603 38.7396 59.5603 38.7932C59.5603 38.8466 60.2677 40.1553 61.132 41.7011C61.9965 43.247 63.0328 45.1231 63.4347 45.8705C63.8365 46.6178 64.7211 48.2299 65.4001 49.4529C66.9241 52.1969 67.729 53.6813 68.8168 55.7529C69.2806 56.6361 69.8423 57.6367 70.065 57.9764C70.2878 58.3161 70.7865 59.2055 71.1731 59.9529C71.5599 60.7002 72.4681 62.3679 73.1912 63.6588C73.9141 64.9497 74.8635 66.6729 75.3009 67.4882C75.7383 68.3035 76.6849 70.0267 77.4044 71.3176C78.1242 72.6085 78.9218 74.0538 79.1769 74.5294C80.7148 77.3953 80.8183 77.443 82.683 76.1432C86.6866 73.3522 89.3272 69.7834 90.9211 65.0099C91.7983 62.3827 92.0454 56.9961 91.4167 54.2004C90.8154 51.5249 89.6957 48.7485 88.1076 45.994C86.6642 43.4911 84.9721 40.3934 83.4512 37.4705C82.9917 36.5872 81.8819 34.5448 80.9854 32.932C80.0889 31.3189 79.3553 29.9673 79.3553 29.9282C79.3553 29.8894 78.6041 28.5027 77.6859 26.8469C76.7677 25.1911 76.0164 23.8071 76.0164 23.7713C76.0164 23.7354 75.4948 22.767 74.8573 21.6194C73.7655 19.654 73.2737 18.7419 71.4473 15.2969C71.0333 14.5154 70.4648 13.4872 70.1838 13.0116C69.9031 12.536 69.3565 11.5003 68.9694 10.71C67.547 7.80701 63.4948 3.93929 59.8916 2.04534C56.5758 0.302825 55.6204 0.0883772 50.8553 0.0164828C48.4942 -0.0190937 46.3478 0.00487104 46.0854 0.0696006ZM107.021 0.190413C106.43 0.324072 105.733 0.526661 105.47 0.640555C105.208 0.754697 104.255 1.1574 103.353 1.53565C100.244 2.83939 96.816 5.84363 94.7697 9.05862C93.7165 10.7132 92.5512 13.438 91.9693 15.6057C91.4849 17.411 91.5331 24.5428 92.0423 26.374C93.142 30.329 94.8787 33.6539 97.2154 36.2777C98.7284 37.9762 101.284 40.1881 101.734 40.1881C101.863 40.1881 102.339 39.4934 102.792 38.644C103.769 36.8118 104.21 35.9995 106.179 32.4057C106.998 30.911 108.236 28.6319 108.931 27.341C109.626 26.0501 110.407 24.6048 110.667 24.1293C112.285 21.1665 115.033 16.0818 117.336 11.7891C117.733 11.0489 118.58 9.50431 119.217 8.35672C119.855 7.20913 120.376 6.23645 120.376 6.1952C120.376 6.15394 120.752 5.45649 121.211 4.6449C122.341 2.64717 122.304 2.3848 120.793 1.68389C117.654 0.227966 116.935 0.0851654 112.387 0.0142593C110.026 -0.0225526 107.611 0.0567536 107.021 0.190413Z" fill="url(#paint0_linear_2_243)"/>
<defs>
<linearGradient id="paint0_linear_2_243" x1="1.77843" y1="35.9335" x2="122" y2="35.9335" gradientUnits="userSpaceOnUse">
<stop stop-color="#E41E6B"/>
<stop offset="1" stop-color="#FF0063"/>
</linearGradient>
</defs>
</svg>
