<svg width="36" height="34" viewBox="0 0 36 34" fill="none" xmlns="http://www.w3.org/2000/svg">
<g id="T-shirt/Outline">
<path id="Vector" d="M7.41153 18.4153L2.19673 17.1982C2.04887 17.163 1.90969 17.0981 1.78762 17.0076C1.66555 16.917 1.56312 16.8026 1.48654 16.6713C1.40995 16.54 1.3608 16.3946 1.34207 16.2438C1.32333 16.0929 1.33539 15.9399 1.37752 15.7938L4.2658 6.05701C4.33529 5.78936 4.50224 5.55731 4.73391 5.40634L12.3548 1.4882C12.5394 1.3811 12.7501 1.32761 12.9634 1.33372H23.0326C23.2487 1.33502 23.4599 1.3984 23.6411 1.5163L31.2667 5.43442C31.4971 5.5867 31.6637 5.81821 31.7348 6.08509L34.6231 15.8219C34.6652 15.9683 34.6771 16.1216 34.658 16.2727C34.639 16.4238 34.5894 16.5695 34.5124 16.7008C34.4353 16.8321 34.3324 16.9465 34.2098 17.0368C34.0872 17.1271 33.9475 17.1916 33.7992 17.2263L28.561 18.4433" stroke="white" stroke-width="1.25" stroke-miterlimit="10"/>
<path id="Vector_2" d="M7.41163 14.9089V28.9852C7.41004 29.9422 7.7749 30.8635 8.43129 31.5599C9.08768 32.2564 9.98579 32.6751 10.9412 32.7301C13.1946 33.143 15.4801 33.356 17.771 33.3667H18.197C20.4889 33.345 22.7743 33.121 25.0268 32.6973C25.9814 32.6412 26.8784 32.2219 27.5338 31.5256C28.1892 30.8293 28.5534 29.9087 28.5517 28.9524V14.9089" stroke="white" stroke-width="1.25" stroke-miterlimit="10" stroke-linecap="round"/>
<path id="Vector_3" d="M22.3539 1.33374C22.3731 1.91963 22.2742 2.50341 22.0632 3.05033C21.8523 3.59726 21.5335 4.09617 21.1258 4.51741C20.7181 4.93864 20.2299 5.2736 19.6902 5.50235C19.1504 5.73111 18.5702 5.84898 17.984 5.84898C17.3978 5.84898 16.8176 5.73111 16.2779 5.50235C15.7381 5.2736 15.2499 4.93864 14.8422 4.51741C14.4346 4.09617 14.1158 3.59726 13.9048 3.05033C13.6938 2.50341 13.595 1.91963 13.6142 1.33374" stroke="white" stroke-width="1.25" stroke-miterlimit="10"/>
</g>
</svg>
