<svg width="36" height="35" viewBox="0 0 36 35" fill="none" xmlns="http://www.w3.org/2000/svg">
<g id="Poliver/Outline">
<path id="Vector" d="M28.6443 27.2324H32.6844C32.9852 27.2322 33.2748 27.1186 33.4955 26.9144C33.7163 26.7102 33.8521 26.4304 33.8757 26.1306L34.6668 15.8843L31.7615 6.09007C31.6892 5.82199 31.5218 5.58936 31.2906 5.43555L23.6248 1.49431C23.4345 1.38073 23.2152 1.3251 22.9938 1.33422H13.0112C12.7923 1.33568 12.5784 1.39938 12.3944 1.51787L4.72851 5.4591C4.49547 5.61096 4.32754 5.84438 4.25763 6.11361L1.3335 15.8937L2.11987 26.14C2.1446 26.4394 2.28067 26.7186 2.50122 26.9226C2.72176 27.1266 3.01077 27.2405 3.31118 27.2418H7.38426" stroke="white" stroke-width="1.25" stroke-miterlimit="10"/>
<path id="Vector_2" d="M22.391 1.33423C22.391 2.4994 21.9282 3.61685 21.1043 4.44075C20.2804 5.26465 19.1629 5.7275 17.9978 5.7275C16.8326 5.7275 15.7152 5.26465 14.8913 4.44075C14.0674 3.61685 13.6045 2.4994 13.6045 1.33423" stroke="white" stroke-width="1.25" stroke-miterlimit="10"/>
<path id="Vector_3" d="M7.36524 14.9897V29.149C7.36358 30.1109 7.72993 31.037 8.3892 31.7374C9.04847 32.4378 9.95071 32.8595 10.9109 32.916C13.1793 33.3311 15.4798 33.5454 17.7857 33.5564H18.2095C20.5155 33.5454 22.816 33.3311 25.0843 32.916C26.0445 32.8595 26.9468 32.4378 27.606 31.7374C28.2653 31.037 28.6317 30.1109 28.63 29.149V14.9897" stroke="white" stroke-width="1.25" stroke-miterlimit="10" stroke-linecap="round"/>
</g>
</svg>
