<svg width="250" height="44" viewBox="0 0 250 44" fill="none" xmlns="http://www.w3.org/2000/svg">
<rect width="250" height="44" fill="url(#paint0_linear_2476_2)" fill-opacity="0.5"/>
<mask id="mask0_2476_2" style="mask-type:alpha" maskUnits="userSpaceOnUse" x="0" y="0" width="250" height="44">
<rect width="250" height="44" fill="url(#paint1_linear_2476_2)" fill-opacity="0.5"/>
</mask>
<g mask="url(#mask0_2476_2)">
<path d="M55.3473 48.9647C48.3184 51.9068 45.6487 59.1191 50.2428 63.2363C59.6947 71.7088 98.6066 67.5236 100.437 61.7806C102.241 56.1226 70.0144 42.8238 55.3473 48.9647Z" stroke="white" stroke-opacity="0.5" stroke-miterlimit="10"/>
<path d="M72.764 30.1202C88.8195 24.4979 115.778 64.5271 104.65 73.9774C97.8086 79.7884 81.246 79.0623 67.7394 77.1525C55.0598 75.36 36.9421 68.0304 32.4722 55.8573C30.1054 49.395 31.5262 40.1878 36.5388 36.9635C40.4183 34.4686 45.6555 35.5911 46.8108 35.1761C52.3186 37.46 53.1268 38.3478 57.515 38.8835C63.2508 39.5841 68.3486 31.666 72.764 30.1202Z" stroke="white" stroke-opacity="0.5" stroke-miterlimit="10"/>
<path d="M89.0543 10.4321C107.701 13.4082 127.964 71.8755 107.737 85.3308C94.8547 93.9002 72.3965 90.1163 56.7426 85.5858C42.3631 81.4244 18.4194 67.5372 13.5752 47.6348C10.7592 36.0706 14.1809 19.8025 23.9851 15.0969C31.8001 11.347 41.8696 14.5714 43.6426 14.8197C54.1222 20.4555 54.9696 23.3228 62.7727 25.253C73.1043 27.8056 81.2613 9.18213 89.0543 10.4321Z" stroke="white" stroke-opacity="0.5" stroke-miterlimit="10"/>
<path d="M104.164 -9.12503C124.752 -3.63883 138.97 79.3072 109.643 96.8134C90.7149 108.111 62.3541 101.334 44.5648 94.1485C28.4719 87.6504 -1.19732 67.2022 -6.50263 39.5416C-9.70318 22.8602 -4.36213 -0.433165 10.2487 -6.64043C21.9892 -11.63 36.9829 -6.50947 39.2902 -5.40747C55.4205 2.30144 55.6247 8.42707 66.8546 11.7518C81.7718 16.1802 93.3812 -11.9923 104.164 -9.12503Z" stroke="white" stroke-opacity="0.5" stroke-miterlimit="10"/>
<path d="M118.365 -27.7927C141.165 -19.8781 149.029 87.545 110.64 109.187C85.641 123.154 51.3896 113.459 31.4802 103.604C13.6552 94.7828 -21.7022 67.7753 -27.4959 32.3378C-31.0572 10.5545 -23.8206 -19.7726 -4.40127 -27.4917C11.2714 -33.716 31.0701 -26.4152 34.0257 -24.7503C54.8181 -13.0365 55.3558 -5.55373 70.0092 -0.858322C89.5154 5.44587 104.717 -32.529 118.365 -27.7927Z" stroke="white" stroke-opacity="0.5" stroke-miterlimit="10"/>
<path d="M-19.6894 -48.0947C-0.0913391 -55.5519 24.5006 -46.0812 28.1231 -43.8432C53.5216 -28.1499 54.4608 -19.3424 72.5326 -13.232C96.6311 -5.08436 115.514 -52.9585 131.915 -46.224C157.108 -35.8792 158.522 96.1586 110.987 121.797C79.9699 138.526 39.7615 125.833 17.7439 113.294C-1.80986 102.16 -42.8299 68.5933 -49.1255 25.372C-53.039 -1.51136 -43.9206 -38.8757 -19.6894 -48.0947Z" stroke="white" stroke-opacity="0.5" stroke-miterlimit="10"/>
<path d="M192.38 -61.6997C184.661 -61.7643 175.403 -75.1465 182.326 -77.3811C186.325 -78.6736 196.911 -76.6294 201.07 -72.9918C206.926 -67.8729 197.692 -61.6538 192.38 -61.6997Z" stroke="white" stroke-opacity="0.5" stroke-miterlimit="10"/>
<path d="M171.401 -75.507C172.156 -77.3029 175.694 -78.1005 178.921 -80.2875C185.469 -84.7261 186.408 -86.8348 191.058 -89.5116C192.872 -90.5575 195.312 -91.9316 197.694 -91.3024C201.342 -90.3381 202.252 -86.1648 206.882 -78.8147C212.885 -69.264 215.158 -66.7947 213.443 -61.7337C213.043 -60.5569 212.526 -56.7458 209.635 -54.421C205.632 -51.2069 200.939 -53.6898 195.072 -51.5623C188.026 -49.0114 184.533 -44.4707 181.475 -46.4774C179.321 -47.8907 179.241 -51.7613 177.628 -58.5008C176.4 -63.635 175.627 -67.0039 174.133 -69.7521C172.342 -73.0241 170.56 -73.5105 171.401 -75.507Z" stroke="white" stroke-opacity="0.5" stroke-miterlimit="10"/>
<path d="M159.601 -71.7639C159.732 -74.9475 164.734 -76.4883 168.857 -81.0884C177.312 -90.5252 173.395 -97.2681 180.172 -104.162C183.047 -107.089 187.56 -109.924 192.083 -109.375C198.501 -108.594 200.656 -101.967 210.537 -88.5304C223.455 -70.963 228.958 -67.5226 227.751 -58.1607C227.505 -56.2526 227.265 -48.9263 222.216 -44.5166C215.483 -38.6359 207.413 -43.986 196.872 -39.5661C185.094 -34.6343 180.693 -24.0905 176.721 -26.2724C173.963 -27.7876 175.02 -33.8895 172.9 -45.7904C171.399 -54.2493 170.472 -59.193 167.472 -63.2421C163.686 -68.3491 159.459 -68.3066 159.601 -71.7639Z" stroke="white" stroke-opacity="0.5" stroke-miterlimit="10"/>
<path d="M147.789 -68.0617C147.278 -72.6245 153.756 -74.9186 158.781 -81.932C169.126 -96.3702 160.206 -107.656 169.274 -118.856C173.155 -123.648 179.811 -127.935 186.459 -127.488C195.673 -126.869 199.077 -117.839 214.194 -98.2868C234.067 -72.7401 242.626 -68.242 242.064 -54.6285C241.954 -51.9738 242.005 -41.1511 234.802 -34.6479C225.339 -26.1057 213.874 -34.3333 198.679 -27.6074C182.158 -20.2947 176.862 -3.75279 171.966 -6.10304C168.605 -7.72883 170.757 -16.0551 168.169 -33.1174C166.383 -44.901 165.306 -51.3956 160.807 -56.7696C155.008 -63.6945 148.335 -63.1469 147.789 -68.0617Z" stroke="white" stroke-opacity="0.5" stroke-miterlimit="10"/>
<path d="M135.95 -64.3696C134.805 -70.3065 142.739 -73.3625 148.677 -82.784C160.89 -102.232 146.95 -118.016 158.35 -133.558C163.223 -140.207 172.04 -145.948 180.81 -145.612C192.826 -145.149 197.425 -133.685 217.816 -108.052C244.583 -74.4815 256.231 -68.9375 256.335 -51.1048C256.355 -47.7036 256.692 -33.3946 247.344 -24.7894C235.138 -13.596 220.3 -24.6959 200.442 -15.6571C179.173 -5.97378 172.985 16.5815 167.183 14.0578C163.218 12.3266 166.468 1.76916 163.412 -20.4528C161.335 -35.5628 160.115 -43.6 154.117 -50.3055C146.3 -59.0399 137.182 -57.9855 135.95 -64.3696Z" stroke="white" stroke-opacity="0.5" stroke-miterlimit="10"/>
<path d="M124.088 -60.6793C126.006 -52.8225 137.566 -54.387 147.399 -43.8432C154.898 -35.8044 156.261 -26.2282 158.629 -7.79005C162.146 19.5899 157.804 32.3803 162.372 34.2153C169.088 36.9141 176.168 8.34373 202.188 -3.70856C226.7 -15.0619 244.94 -1.0658 259.869 -14.9326C271.378 -25.6244 270.738 -43.4197 270.589 -47.5845C269.796 -69.6314 255.076 -76.2264 221.415 -117.82C195.748 -149.535 189.959 -163.429 175.134 -163.737C164.244 -163.963 153.261 -156.764 147.399 -148.261C133.673 -128.364 152.662 -108.074 138.551 -83.6377C131.713 -71.7963 122.304 -67.9886 124.088 -60.6793Z" stroke="white" stroke-opacity="0.5" stroke-miterlimit="10"/>
<path d="M222.189 65.7787C220.174 64.7584 215.944 66.7243 215.57 69.7871C215.146 73.2615 219.933 76.1355 222.036 75.2427C224.524 74.1849 224.862 67.129 222.189 65.7787Z" stroke="white" stroke-opacity="0.5" stroke-miterlimit="10"/>
<path d="M227.865 84.239C231.299 81.0299 232.8 75.1407 234.517 65.0458C236.218 55.0359 235.951 47.8695 234.455 47.3491C233.64 47.0685 231.331 49.264 229.351 50.8728C225.643 53.8761 219.296 53.5428 217.67 53.8676C211.715 55.058 209.965 57.2689 207.476 61.5034C206.324 63.4591 203.637 67.7957 202.455 72.8976C200.651 80.6235 192.567 83.0043 193.553 86.1011C194.381 88.6861 202.39 89.3136 207.583 89.3867C215.026 89.4922 222.557 89.1946 227.865 84.239Z" stroke="white" stroke-opacity="0.5" stroke-miterlimit="10"/>
<path d="M233.817 92.8662C239.461 87.1317 241.682 77.5079 245.102 59.5103C248.576 41.4259 248.554 29.0215 246.842 28.559C245.558 28.2052 241.397 32.6762 237.862 35.8716C231.197 41.9207 219.266 40.9259 216.807 41.3136C205.594 43.0448 202.831 47.1927 198.485 55.0325C196.675 58.2977 191.708 66.2566 189.445 75.6559C185.962 90.0551 169.449 93.8254 170.815 99.1636C171.957 103.609 187.271 104.291 196.906 103.925C210.512 103.396 224.28 102.56 233.817 92.8662Z" stroke="white" stroke-opacity="0.5" stroke-miterlimit="10"/>
<path d="M239.737 101.437C247.596 93.1791 250.511 79.814 255.653 53.9186C260.875 27.7546 261.118 10.1413 259.195 9.70251C257.434 9.29437 251.426 16.0288 246.345 20.8195C236.74 29.9297 219.21 28.2546 215.917 28.6933C199.45 30.8905 195.657 37.0349 189.467 48.4971C186.997 53.07 179.753 64.6529 176.406 78.3446C171.249 99.4187 146.305 104.575 148.049 112.156C149.506 118.462 172.127 119.226 186.202 118.391C205.967 117.277 225.994 115.879 239.737 101.437Z" stroke="white" stroke-opacity="0.5" stroke-miterlimit="10"/>
<path d="M245.638 110.003C255.717 99.2214 259.323 82.1132 266.187 48.3202C273.163 14.0799 273.673 -8.7373 271.533 -9.16075C269.294 -9.60801 261.434 -0.637243 254.812 5.75198C242.248 17.9029 219.138 15.5646 215.012 16.0663C193.291 18.7005 188.44 26.8567 180.432 41.9531C177.291 47.8304 167.782 63.0408 163.354 81.0265C156.517 108.774 123.142 115.318 125.269 125.142C127.037 133.305 156.967 134.12 175.483 132.851C201.398 131.105 227.695 129.198 245.638 110.003Z" stroke="white" stroke-opacity="0.5" stroke-miterlimit="10"/>
<path d="M214.098 3.43404C187.124 6.49515 181.259 16.6989 171.39 35.4057C167.596 42.5976 155.801 61.4252 150.292 83.7033C141.784 118.127 99.9729 126.057 102.479 138.123C104.562 148.157 141.798 149.007 164.755 147.306C196.831 144.926 229.393 142.514 251.532 118.566C263.832 105.259 268.126 84.4124 276.714 42.7184C285.431 0.400139 286.208 -27.6159 283.86 -28.0274C281.138 -28.5036 271.439 -17.3135 263.272 -9.3206C247.747 5.86933 219.06 2.87113 214.098 3.43404Z" stroke="white" stroke-opacity="0.5" stroke-miterlimit="10"/>
<path d="M-5.22649 -78.3658C-2.16377 -66.6315 19.8198 -72.1432 45.989 -45.7139C55.366 -36.2431 61.6531 -26.337 74.064 -24.7962C75.3163 -24.6415 87.7492 -23.2827 96.5239 -31.2586C107.563 -41.2923 100.825 -55.2118 113.709 -74.6244C118.455 -81.7755 119.244 -79.699 122.727 -85.3383C137.592 -109.411 114.921 -133.848 128.002 -158.295C134.024 -169.548 142.975 -172.131 142.124 -173.6C138.453 -179.905 -13.5026 -109.985 -5.22649 -78.3658Z" stroke="white" stroke-opacity="0.5" stroke-miterlimit="10"/>
<path d="M77.467 -40.8382C78.219 -40.9402 86.4169 -40.328 92.0404 -45.9673C99.1511 -53.0878 94.0822 -62.8918 102.229 -76.1277C105.227 -81.0017 105.644 -79.6803 107.778 -83.5356C116.881 -99.9874 100.543 -116.538 108.543 -132.643C112.246 -140.098 118.091 -141.807 117.221 -142.535C113.289 -145.855 12.9899 -96.8141 20.8679 -75.4747C23.8217 -67.4716 39.9469 -70.3116 58.3981 -53.0741C65.1072 -46.8108 69.6502 -39.7787 77.467 -40.8382Z" stroke="white" stroke-opacity="0.5" stroke-miterlimit="10"/>
<path d="M80.87 -56.8818C81.0844 -57.4209 85.0931 -57.409 87.5569 -60.6759C90.7558 -64.9139 87.3494 -70.5599 90.749 -77.6294C91.9962 -80.2245 92.0472 -79.6701 92.8299 -81.733C96.1904 -90.6051 86.1515 -99.217 89.0866 -106.992C90.4597 -110.652 93.012 -111.276 92.3314 -111.472C87.3562 -110.766 39.5845 -83.5952 46.9538 -72.5837C49.831 -68.2811 60.1303 -68.4869 70.7987 -60.4344C74.8534 -57.3733 77.5078 -55.1319 80.87 -56.8818Z" stroke="white" stroke-opacity="0.5" stroke-miterlimit="10"/>
<path d="M84.273 -72.9238C81.6323 -80.6361 71.236 -83.2584 67.4281 -80.4065C61.8131 -76.1958 66.6028 -70.713 73.0431 -69.6926C77.8566 -68.9358 87.2949 -64.0976 84.273 -72.9238Z" stroke="white" stroke-opacity="0.5" stroke-miterlimit="10"/>
</g>
<defs>
<linearGradient id="paint0_linear_2476_2" x1="231.413" y1="22" x2="7.23747e-07" y2="22" gradientUnits="userSpaceOnUse">
<stop stop-color="#E41E6B"/>
<stop offset="1" stop-color="#E41E6B" stop-opacity="0"/>
</linearGradient>
<linearGradient id="paint1_linear_2476_2" x1="231.413" y1="22" x2="7.23747e-07" y2="22" gradientUnits="userSpaceOnUse">
<stop stop-color="#E41E6B"/>
<stop offset="1" stop-color="#E41E6B" stop-opacity="0"/>
</linearGradient>
</defs>
</svg>
