<svg width="27" height="20" viewBox="0 0 27 20" fill="none" xmlns="http://www.w3.org/2000/svg">
<path d="M26.6667 9.30002V15.2505C26.65 15.3703 26.6175 15.4849 26.5693 15.5943C26.155 16.5374 25.7378 17.4788 25.3177 18.4188C25.1497 18.7945 24.8613 18.9827 24.4526 18.9834C23.8498 18.9847 23.2472 18.9849 22.6448 18.9839C22.3618 18.9835 22.1585 18.9578 22.0349 18.9068C21.6115 18.7323 21.5078 18.3802 21.5099 17.9287C21.5113 17.5433 21.5111 17.1587 21.5094 16.775C21.5094 16.7695 21.5072 16.7642 21.5033 16.7603C21.4994 16.7564 21.4941 16.7542 21.4885 16.7542L20.8672 16.7578C20.8639 16.7578 20.8606 16.7585 20.8575 16.7598C20.8544 16.7611 20.8517 16.763 20.8493 16.7653C20.847 16.7677 20.8452 16.7705 20.8439 16.7736C20.8427 16.7767 20.8421 16.78 20.8422 16.7834C20.8498 17.4945 20.8479 18.2061 20.8365 18.9183C20.8326 19.1755 20.8042 19.3634 20.751 19.4818C20.5771 19.8714 20.2464 19.9735 19.8203 19.9735C16.9439 19.9745 14.0675 19.9745 11.1911 19.9735C10.888 19.9735 10.7271 19.9094 10.5083 19.7266C9.39965 18.7995 8.28854 17.8702 7.175 16.9386C7.1559 16.9229 7.13403 16.915 7.10937 16.9146C6.06146 16.9129 5.00937 16.9132 3.95312 16.9157C3.30365 16.9172 2.91771 16.6172 2.91771 15.9104C2.91667 14.4188 2.91649 12.9266 2.91719 11.4339C2.91719 11.4155 2.90816 11.4063 2.8901 11.4063H1.75937C1.75192 11.4063 1.74476 11.4092 1.73949 11.4144C1.73421 11.4195 1.73125 11.4266 1.73125 11.4339C1.73229 12.8985 1.73212 14.3646 1.73073 15.8323C1.73038 16.0729 1.71319 16.2433 1.67917 16.3433C1.54531 16.737 1.08958 16.9912 0.69375 16.8985C0.288194 16.803 0.0569444 16.538 0 16.1037V4.9844C0.100521 4.02554 1.40104 3.85575 1.68802 4.7745C1.71649 4.86582 1.7309 5.01131 1.73125 5.21096C1.73229 6.69256 1.73229 8.17398 1.73125 9.65523C1.73125 9.66034 1.73328 9.66525 1.73689 9.66886C1.74051 9.67247 1.74541 9.6745 1.75052 9.6745H2.88854C2.9066 9.6745 2.91562 9.66548 2.91562 9.64742C2.91771 8.13179 2.91788 6.61756 2.91615 5.10471C2.91562 4.45523 3.34896 4.16513 3.93958 4.16617C4.51042 4.16686 5.07899 4.16686 5.64531 4.16617C5.65696 4.16617 5.66815 4.16158 5.67643 4.15339C5.68472 4.1452 5.68945 4.13407 5.68958 4.12242C5.69375 3.55732 5.58281 2.912 6.22083 2.65107C6.34097 2.60176 6.52882 2.57728 6.78437 2.57763C8.11597 2.57936 9.44774 2.57919 10.7797 2.57711C10.7981 2.57711 10.8073 2.56791 10.8073 2.5495V1.7844C10.8073 1.76252 10.7962 1.75159 10.774 1.75159C9.40729 1.75679 8.04115 1.75541 6.67552 1.74742C6.48663 1.74603 6.34444 1.72745 6.24896 1.69169C5.50885 1.41304 5.50677 0.339607 6.26302 0.0729403C6.36059 0.0385653 6.5191 0.0210304 6.73854 0.020336C10.0017 0.00679432 13.2649 0.00835702 16.5281 0.0250237C16.8309 0.0267598 17.0411 0.0531485 17.1589 0.10419C17.8375 0.398982 17.8172 1.32815 17.1797 1.65679C16.9635 1.76877 16.6599 1.75315 16.4354 1.75419C15.558 1.75905 14.2701 1.75905 12.5719 1.75419C12.5507 1.75419 12.5401 1.76478 12.5401 1.78596L12.5385 2.54794C12.5385 2.55581 12.5417 2.56337 12.5474 2.56893C12.5531 2.5745 12.5607 2.57763 12.5687 2.57763C13.8868 2.57867 15.204 2.57867 16.5203 2.57763C17.0182 2.57711 17.4021 2.64117 17.5927 3.10784C17.6434 3.23179 17.6689 3.43127 17.6693 3.70627C17.6696 4.39759 17.6696 5.08804 17.6693 5.77763C17.6693 5.78146 17.67 5.78525 17.6715 5.78879C17.673 5.79233 17.6751 5.79554 17.6778 5.79825C17.6805 5.80096 17.6837 5.80311 17.6873 5.80458C17.6908 5.80604 17.6946 5.8068 17.6984 5.8068C18.3509 5.80749 19.0066 5.80749 19.6656 5.8068C20.1661 5.80627 20.5198 5.84586 20.7422 6.28336C20.7943 6.38614 20.824 6.52572 20.8312 6.70211C20.8458 7.05627 20.8491 7.41114 20.8411 7.76669C20.841 7.77095 20.8417 7.77519 20.8433 7.77917C20.8448 7.78315 20.8471 7.78677 20.8501 7.78983C20.853 7.79289 20.8566 7.79533 20.8605 7.79699C20.8644 7.79865 20.8687 7.79951 20.8729 7.7995H21.4698C21.4803 7.7995 21.4905 7.79535 21.498 7.78794C21.5055 7.78053 21.5098 7.77047 21.5099 7.75992C21.5113 7.38978 21.5113 7.01669 21.5099 6.64065C21.5078 6.17294 21.6068 5.80419 22.0526 5.6318C22.1748 5.58457 22.383 5.56061 22.6771 5.55992C23.5413 5.55818 24.129 5.55871 24.4401 5.56148C24.8575 5.5653 25.151 5.75645 25.3208 6.13492C25.7226 7.03284 26.1214 7.93214 26.5172 8.83284C26.5991 9.01999 26.649 9.17572 26.6667 9.30002ZM4.67135 15.1875C5.59601 15.182 6.50417 15.1799 7.39583 15.1813C7.64618 15.1816 7.88056 15.2731 8.09896 15.4558C9.20486 16.379 10.3101 17.3037 11.4146 18.2297C11.4275 18.2406 11.4436 18.2473 11.4609 18.249C11.6776 18.2667 11.9646 18.2433 12.1078 18.2433C14.4339 18.2401 16.762 18.2412 19.0922 18.2464C19.0981 18.2464 19.1038 18.244 19.108 18.2398C19.1122 18.2356 19.1146 18.2299 19.1146 18.224C19.1146 17.5007 19.1146 16.7761 19.1146 16.05C19.1141 15.299 19.4719 15.024 20.1927 15.0255C20.8663 15.0266 21.5401 15.0266 22.2141 15.0255C22.4241 15.0252 22.5854 15.0479 22.6979 15.0938C23.224 15.3084 23.2396 15.7396 23.2417 16.3099C23.2427 16.6148 23.2427 16.9202 23.2417 17.2261C23.2417 17.2438 23.2507 17.2526 23.2687 17.2526H23.9193C23.937 17.2526 23.9495 17.2445 23.9568 17.2282C24.2661 16.5306 24.5745 15.8323 24.8818 15.1334C24.9172 15.0531 24.9349 14.9691 24.9349 14.8813C24.9352 13.1427 24.9351 11.4038 24.9344 9.66461C24.9344 9.5778 24.9168 9.49464 24.8818 9.41513C24.572 8.7127 24.2625 8.01009 23.9531 7.30732C23.9513 7.30297 23.9482 7.29926 23.9443 7.29666C23.9404 7.29407 23.9359 7.2927 23.9312 7.29273L23.2698 7.29117C23.2483 7.29117 23.2377 7.30193 23.238 7.32346C23.2457 8.01374 23.2462 8.44916 23.2396 8.62971C23.2182 9.23284 22.8115 9.51773 22.2536 9.52502C21.1741 9.53961 20.4285 9.54065 20.0167 9.52815C19.376 9.50888 19.112 9.08492 19.1141 8.50523C19.1154 8.1903 19.1154 7.8778 19.1141 7.56773C19.1141 7.56014 19.111 7.55285 19.1055 7.54748C19.1001 7.5421 19.0926 7.53909 19.0849 7.53909C18.4189 7.53943 17.7519 7.53926 17.0839 7.53857C16.5917 7.53857 16.2016 7.4693 16.0135 7.0068C15.9622 6.88006 15.9366 6.66721 15.937 6.36825C15.938 5.6877 15.938 5.01044 15.937 4.33648C15.937 4.32944 15.9342 4.32268 15.9292 4.3177C15.9242 4.31272 15.9175 4.30992 15.9104 4.30992H7.45833C7.43542 4.30992 7.42378 4.32138 7.42344 4.3443C7.41146 4.94169 7.51719 5.60784 6.83437 5.837C6.71076 5.87867 6.46615 5.89916 6.10052 5.89846C5.62274 5.89811 5.14757 5.89829 4.675 5.89898C4.66795 5.89898 4.6612 5.90178 4.65622 5.90676C4.65124 5.91174 4.64844 5.9185 4.64844 5.92555V15.1651C4.64844 15.1681 4.64903 15.1711 4.65019 15.1738C4.65135 15.1766 4.65304 15.1791 4.65518 15.1812C4.65731 15.1832 4.65985 15.1849 4.66262 15.186C4.6654 15.1871 4.66837 15.1876 4.67135 15.1875Z" fill="white" fill-opacity="0.7" class="engine" :class="{active: data.engine}">
</svg>
