<svg width="11" height="12" viewBox="0 0 11 12" fill="none" xmlns="http://www.w3.org/2000/svg">
<path id="Vector" d="M10.2842 2.01387C9.22087 0.63578 6.89789 -0.356166 7.48033 0.173099C8.93982 1.53121 9.85072 2.83606 9.90152 3.11567C9.95231 3.39528 9.61368 3.96782 10.0065 4.13425H10.0336C10.0336 4.99972 10.0336 7.74258 10.0336 9.6466C10.0336 9.72982 9.96248 10.6019 9.25136 10.6019C8.54023 10.6019 8.46573 9.73648 8.46573 9.65326V6.5509C8.48431 6.29079 8.44687 6.02975 8.35584 5.78483C8.26481 5.53992 8.12225 5.31662 7.93747 5.12954C7.73639 4.94574 7.48823 4.81917 7.21958 4.76339V0.665742C7.21958 0.489176 7.14822 0.319852 7.02121 0.195001C6.8942 0.0701502 6.72194 0 6.54232 0H1.05991C0.880291 0 0.708017 0.0701502 0.581006 0.195001C0.453996 0.319852 0.382653 0.489176 0.382653 0.665742V11.3176H0V12H7.58531V11.3176H7.2128V5.32594C7.33811 5.36481 7.45355 5.42949 7.55143 5.51568C7.67395 5.65077 7.76719 5.80899 7.82541 5.98069C7.88363 6.15239 7.90562 6.33395 7.89006 6.51429V9.63662C7.91376 10.1592 8.22869 11.1412 9.24458 11.1412C10.2605 11.1412 10.5991 10.1426 10.5991 9.63662V6.74064V4.74341C10.5991 4.41054 10.5991 4.20416 10.5991 4.05104C10.6795 3.99464 10.7504 3.92612 10.809 3.84799C10.9513 3.70153 11.3475 3.39195 10.2842 2.01387ZM6.522 4.94313H1.06669V1.02858H6.522V4.94313Z" fill="white"/>
</svg>
