<svg width="20" height="20" viewBox="0 0 20 20" fill="none" xmlns="http://www.w3.org/2000/svg">
<g id="key 1" clip-path="url(#clip0_2444_31)">
<path id="Vector" d="M13.7333 0H13.8891C14.4917 0.0325521 14.9952 0.259896 15.3997 0.682031C15.52 0.807552 15.5814 0.871484 15.584 0.873828C16.6773 1.95482 17.7671 3.03841 18.8536 4.12461C19.2374 4.5082 19.4803 4.93958 19.5821 5.41875C19.7715 6.30898 19.2485 7.01836 18.6481 7.61602C17.1163 9.14102 15.5835 10.665 14.0497 12.1879C13.8228 12.4132 13.6511 12.5548 13.5344 12.6129C13.052 12.8531 12.6715 12.6285 12.32 12.277C10.6551 10.6108 8.98963 8.94518 7.32349 7.28008C6.9563 6.91328 6.72427 6.53555 6.98169 6.03242C7.0369 5.92383 7.15122 5.78294 7.32466 5.60977C8.94263 3.9918 10.5606 2.37396 12.1786 0.75625C12.6426 0.292188 13.0778 0.0414062 13.7333 0ZM13.984 2.70312C13.4833 2.20664 12.8961 2.83828 13.3286 3.27305C13.9176 3.86602 14.8842 4.83268 16.2282 6.17305C16.3297 6.27435 16.4076 6.33906 16.4618 6.36719C16.7106 6.49531 16.9704 6.35664 17.0567 6.10547C17.1375 5.8707 17.0184 5.71641 16.845 5.54414C15.8913 4.59674 14.9377 3.64974 13.984 2.70312Z" fill="white" fill-opacity="0.7"/>
<path id="Vector_2" d="M2.65385 20.0001H0.808147C0.524553 19.9545 0.38484 19.7787 0.389007 19.4727C0.40359 18.3412 0.417783 17.5965 0.431585 17.2387C0.436272 17.1133 0.512053 17.0063 0.608147 16.9094C2.43419 15.074 4.26283 13.2409 6.09408 11.4102C6.10424 11.4001 6.10411 11.39 6.09369 11.3801C5.71479 11.0079 5.55033 10.8137 5.98705 10.3758C6.40997 9.95162 6.83354 9.52818 7.25776 9.10552C7.5726 8.79224 7.78041 8.72623 8.10815 9.05201C8.91231 9.85123 9.71297 10.6538 10.5101 11.4598C10.7417 11.6934 10.8882 11.9477 10.6226 12.2141C10.102 12.7355 9.58106 13.2563 9.05971 13.7766C8.99955 13.8368 8.89057 13.8735 8.79565 13.8887C8.4381 13.9455 8.08041 14.0019 7.7226 14.0579C7.71667 14.0588 7.71117 14.0615 7.70689 14.0657C7.70261 14.0699 7.69977 14.0754 7.69877 14.0813C7.6269 14.467 7.55685 14.851 7.48862 15.2333C7.44604 15.4708 7.27299 15.5579 7.03901 15.6114C6.73015 15.682 6.42117 15.7506 6.11205 15.8172C6.09799 15.8204 6.09031 15.8291 6.08901 15.8434C6.06505 16.1106 6.04096 16.3764 6.01674 16.6407C6.00151 16.8044 5.93666 16.9008 5.81323 17.0239C5.63198 17.2038 5.44903 17.3822 5.2644 17.559C5.10229 17.7145 4.97963 17.7274 4.74643 17.6977C4.5532 17.6732 4.35711 17.6491 4.15815 17.6254C4.15507 17.6251 4.15194 17.6253 4.14897 17.6262C4.146 17.6271 4.14325 17.6286 4.14089 17.6307C4.13854 17.6327 4.13663 17.6352 4.1353 17.638C4.13397 17.6408 4.13323 17.6438 4.13315 17.6469C4.12273 17.9365 4.11414 18.2286 4.10737 18.5231C4.10346 18.6891 4.02533 18.8008 3.90033 18.9262C3.58289 19.245 3.26492 19.5628 2.94643 19.8797C2.88315 19.9428 2.78562 19.9829 2.65385 20.0001Z" fill="white" fill-opacity="0.7"/>
</g>
<defs>
<clipPath id="clip0_2444_31">
<rect width="20" height="20" fill="white"/>
</clipPath>
</defs>
</svg>
