<svg width="56" height="35" viewBox="0 0 56 35" fill="none" xmlns="http://www.w3.org/2000/svg">
<path fill-rule="evenodd" clip-rule="evenodd" d="M2.45911 0.12271C2.17456 0.182165 1.51703 0.418976 0.997931 0.648944C-0.255654 1.20434 -0.258577 1.23901 0.788062 3.10994C1.22923 3.89834 1.71185 4.77053 1.86068 5.04817C2.00939 5.32582 2.40857 6.05061 2.74767 6.65874C3.08666 7.26686 3.54006 8.09979 3.75513 8.5097C3.97019 8.9196 4.23602 9.38885 4.34599 9.55263C4.45584 9.71641 4.54579 9.87907 4.54579 9.91407C4.54579 9.94896 4.76497 10.3619 5.03285 10.8315C5.30073 11.3011 5.51991 11.7 5.51991 11.7179C5.51991 11.7359 5.84126 12.3249 6.23394 13.0268C6.93347 14.2771 7.66341 15.5967 8.08769 16.3783C8.20491 16.5942 8.56804 17.2505 8.8947 17.8366C9.22125 18.4228 9.65029 19.2052 9.84793 19.5754C10.0457 19.9456 10.4597 20.7028 10.7678 21.2581C11.0761 21.8134 11.4506 22.4949 11.6003 22.7725C11.7498 23.0502 12.2626 23.9841 12.7397 24.8479C15.54 29.9184 16.2334 31.1751 16.4531 31.5786C16.5874 31.8254 16.9173 32.4312 17.1862 32.9248C17.4552 33.4184 17.8175 34.0873 17.9916 34.4112C18.21 34.8177 18.3754 35.0001 18.5257 35.0001C18.8548 35.0001 20.2761 33.9328 20.9464 33.1825C21.6182 32.4304 22.2733 31.457 22.5541 30.7934C22.6586 30.5466 22.7884 30.2437 22.8425 30.1203C23.0849 29.5677 23.2643 28.8054 23.3886 27.7981C23.6619 25.5857 23.1352 23.2708 21.8656 21.1043C21.5859 20.627 21.2112 19.9615 21.0329 19.6255C20.8547 19.2895 20.4876 18.6107 20.2171 18.1171C19.3928 16.6128 18.7076 15.3436 16.8555 11.8911C16.4419 11.1199 15.9193 10.1608 15.6944 9.75971C15.4696 9.35867 15.1405 8.7529 14.9633 8.41356C14.6112 7.73947 14.4038 7.35616 13.6582 6.0017C13.3864 5.50811 13.0724 4.90997 12.9602 4.6726C12.7738 4.27761 11.1456 2.48364 10.4973 1.95898C9.68785 1.30374 8.6332 0.738127 7.41403 0.30545C6.87372 0.113736 6.44641 0.0699857 4.8705 0.0448575C3.82873 0.0282549 2.74356 0.0632549 2.45911 0.12271ZM20.9435 0.0692004C20.5296 0.171508 19.6434 0.458127 19.4282 0.5592C19.3091 0.615178 18.9804 0.765947 18.6976 0.894168C18.3327 1.05975 18.1835 1.19212 18.1835 1.35007C18.1835 1.47245 18.4431 2.03907 18.7606 2.60928C19.0779 3.17938 19.4603 3.87309 19.6102 4.15074C19.7602 4.42838 20.4575 5.6904 21.1599 6.95523C21.8622 8.22005 22.5326 9.43159 22.6495 9.64753C23.0976 10.4751 24.3101 12.685 25.1422 14.1908C25.6195 15.0546 26.132 15.9885 26.281 16.2661C26.4301 16.5438 26.666 16.9593 26.8054 17.1894C26.9448 17.4196 27.0588 17.6276 27.0588 17.652C27.0588 17.6762 27.3798 18.2704 27.7721 18.9723C28.1644 19.6742 28.6347 20.5261 28.8171 20.8655C28.9995 21.2048 29.4009 21.9368 29.7091 22.4921C30.4007 23.7381 30.766 24.412 31.2597 25.3527C31.4702 25.7537 31.7251 26.208 31.8262 26.3623C31.9272 26.5165 32.1536 26.9204 32.329 27.2597C32.5046 27.5991 32.9167 28.3563 33.2449 28.9424C33.573 29.5285 34.0039 30.311 34.2024 30.6812C34.4009 31.0514 34.8305 31.8338 35.157 32.42C35.4837 33.0061 35.8456 33.6624 35.9614 33.8783C36.6593 35.1796 36.7063 35.2012 37.5526 34.6111C39.3695 33.3438 40.5679 31.7233 41.2913 29.5559C41.6894 28.363 41.8015 25.9172 41.5162 24.6477C41.2433 23.4329 40.7351 22.1723 40.0144 20.9216C39.3594 19.7851 38.5914 18.3786 37.9012 17.0514C37.6926 16.6503 37.189 15.723 36.7822 14.9906C36.3753 14.2582 36.0424 13.6445 36.0424 13.6268C36.0424 13.6092 35.7014 12.9795 35.2847 12.2277C34.868 11.4758 34.5271 10.8474 34.5271 10.8311C34.5271 10.8149 34.2904 10.3751 34.001 9.85406C33.5055 8.96167 33.2824 8.5475 32.4535 6.98327C32.2656 6.62845 32.0076 6.16156 31.8801 5.94561C31.7527 5.72967 31.5046 5.25941 31.3289 4.90055C30.6834 3.58244 28.8444 1.82627 27.2092 0.9663C25.7043 0.175098 25.2708 0.0777261 23.1082 0.0450818C22.0367 0.028928 21.0626 0.0398094 20.9435 0.0692004ZM48.5977 0.124056C48.3298 0.184745 48.0132 0.276733 47.8942 0.328447C47.7751 0.380274 47.3427 0.563127 46.9334 0.734874C45.5222 1.32684 43.9665 2.69095 43.0379 4.15074C42.5599 4.90201 42.0311 6.13923 41.767 7.1235C41.5471 7.94319 41.569 11.1815 41.8001 12.013C42.2992 13.8087 43.0873 15.3184 44.1478 16.5098C44.8345 17.281 45.9943 18.2854 46.1983 18.2854C46.257 18.2854 46.473 17.9699 46.6785 17.5842C47.1218 16.7523 47.3219 16.3835 48.2156 14.7517C48.5873 14.073 49.1494 13.0382 49.4648 12.452C49.7801 11.8659 50.1345 11.2096 50.2525 10.9937C50.987 9.64843 52.2341 7.33967 53.2792 5.39055C53.4594 5.05446 53.8436 4.35311 54.1329 3.83204C54.4222 3.31096 54.6589 2.86931 54.6589 2.85058C54.6589 2.83184 54.8294 2.51516 55.0377 2.14665C55.5507 1.23957 55.5339 1.12043 54.8482 0.802181C53.4234 0.141107 53.0972 0.0762677 51.033 0.0440722C49.9615 0.0273575 48.8656 0.0633671 48.5977 0.124056Z" fill="url(#paint0_linear_2420_7)"/>
<defs>
<linearGradient id="paint0_linear_2420_7" x1="0.835667" y1="16.3535" x2="55.3958" y2="16.3535" gradientUnits="userSpaceOnUse">
<stop stop-color="#E41E6B"/>
<stop offset="1" stop-color="#FF0063"/>
</linearGradient>
</defs>
</svg>
