<svg width="16" height="16" viewBox="0 0 16 16" fill="none" xmlns="http://www.w3.org/2000/svg">
<path d="M2.90118 15.9279C2.86383 15.8872 2.79535 15.7651 2.75177 15.6524C2.5899 15.2579 1.96111 13.5138 1.96733 13.4888C1.97356 13.4731 2.45916 13.9522 3.0506 14.5471L4.12453 15.6336L3.93776 15.7181C3.62647 15.8622 3.20935 15.9999 3.08484 15.9999C3.00391 15.9999 2.94788 15.978 2.90118 15.9279Z" fill="white"/>
<path d="M5.31655 15.6743C4.80293 15.2047 1.12355 11.5256 0.616161 10.9808C0.379585 10.724 0.17725 10.4798 0.167912 10.4391C0.152348 10.3765 0.186589 10.3201 0.360908 10.1197C0.665966 9.77219 10.1103 0.26299 10.2473 0.169056C10.3531 0.0939094 10.3656 0.0907783 10.4527 0.137745C10.6364 0.23481 11.2776 0.857901 13.3881 3.00898C15.838 5.50135 15.9687 5.64225 15.9687 5.74557C15.9687 5.83637 13.0987 8.77649 9.56558 12.3053C6.48075 15.3863 5.84885 16 5.74924 16C5.69009 16 5.5718 15.9123 5.31655 15.6743ZM2.72978 10.5863C2.91966 10.4235 3.48309 9.85359 3.85352 9.44342C4.05896 9.21798 4.07764 9.18667 4.07764 9.06455C4.07764 8.80154 3.83173 8.63559 3.61383 8.74831C3.56091 8.77649 3.19359 9.11778 2.80138 9.50917L2.08542 10.2168V10.3859C2.08542 10.5393 2.09787 10.5675 2.18192 10.6489C2.25663 10.7209 2.30643 10.7397 2.41538 10.7397C2.53056 10.7397 2.57414 10.7178 2.72978 10.5863ZM9.39437 9.97884C9.70566 9.81602 9.91422 9.56866 10.0107 9.24303C10.073 9.04577 10.0699 8.55105 10.0076 8.31622C9.74924 7.33618 8.88075 6.43442 7.90643 6.1307C7.71966 6.07434 7.60138 6.05868 7.31499 6.05868C6.99437 6.05868 6.93834 6.06808 6.7827 6.14009C6.45585 6.29665 6.21616 6.57845 6.11344 6.9354C6.04496 7.17962 6.06675 7.66181 6.16324 7.95301C6.42472 8.74518 7.09398 9.49665 7.86285 9.86612C8.25196 10.0509 8.39515 10.0822 8.84029 10.0728C9.19515 10.0665 9.24496 10.0571 9.39437 9.97884ZM12.8621 7.06377C13.2854 6.67238 13.8239 6.11818 13.9516 5.94909C14.0792 5.77688 14.0792 5.61093 13.9485 5.4763C13.8738 5.40115 13.8302 5.38549 13.715 5.38549C13.5811 5.38549 13.5531 5.40115 13.3321 5.60154C13.0551 5.8489 12.3298 6.58784 12.1617 6.79136C12.0683 6.90722 12.0465 6.95731 12.0465 7.07003C12.0465 7.25477 12.199 7.42072 12.3702 7.42072C12.4667 7.42072 12.5228 7.38001 12.8621 7.06377Z" fill="white"/>
<path d="M9.41626 13.5515C9.87696 13.063 11.6917 11.2407 11.7135 11.2407C11.7291 11.2407 11.7758 11.2689 11.8194 11.3033C11.8692 11.344 11.947 11.3659 12.0279 11.3659C12.2707 11.3659 13.7867 10.7992 13.9579 10.6458C14.0419 10.5706 14.0544 10.5362 14.0513 10.411C14.0482 10.292 14.0295 10.2481 13.9454 10.1605C13.7991 10.0102 13.7058 10.0164 13.105 10.2262C12.8279 10.3233 12.5976 10.3953 12.5882 10.389C12.582 10.3796 13.0956 9.85675 13.7307 9.22113C14.4061 8.54481 14.8917 8.08141 14.9104 8.09706C14.9416 8.13151 15.4583 9.52172 15.7042 10.2387C15.8847 10.771 15.975 11.1217 15.9501 11.1937C15.9314 11.2376 15.6606 11.3691 15.2373 11.535C14.4715 11.8356 10.2972 13.3793 9.63416 13.6078L9.22949 13.7487L9.41626 13.5515Z" fill="white"/>
<path d="M0.248922 8.77962C0.214681 8.66377 0.177327 8.5166 0.167989 8.44772C0.133747 8.23794 0.217794 8.18158 1.08316 7.84655C1.37888 7.73383 1.63725 7.63989 1.65904 7.63989C1.69951 7.63989 0.781218 8.5761 0.491724 8.83285L0.314292 8.9894L0.248922 8.77962Z" fill="white"/>
</svg>
