<svg width="929" height="900" viewBox="0 0 929 900" fill="none" xmlns="http://www.w3.org/2000/svg">
<g clip-path="url(#clip0_8422_514)">
<path d="M746.858 170.122L695.33 46.698C678.087 0.78101 649.243 -7.48498 615.092 4.49402L209.98 170.122H746.858Z" fill="white"/>
<path d="M929.737 633.382H708.89C663.733 633.382 627.127 596.775 627.127 551.618V453.501C627.127 408.344 663.733 371.738 708.89 371.738H929.676V170.122C929.676 101.908 884.529 40.074 816.806 40.074L833.306 127.919C842.875 131.107 852.689 140.923 852.689 153.929L852.835 192.699C852.835 205.703 842.873 212.328 830.115 212.328H87.1218C74.3618 212.328 67.9828 209.138 67.9828 192.698V153.927C67.9828 140.922 74.3618 134.297 87.1228 134.297H161.226L328.571 40.074H129.081C61.6028 40.074 0.258789 105.098 0.258789 173.312V773.828C0.258789 842.042 55.2228 900.44 122.456 900.44H801.161C868.883 900.44 929.737 838.606 929.737 770.392V640.992V633.382Z" fill="white"/>
<path d="M753.047 418.834C724.147 418.834 700.717 442.262 700.717 471.162V533.956C700.717 562.856 724.147 586.284 753.047 586.284H876.86C905.76 586.284 929.19 562.856 929.19 533.956V471.162C929.19 442.262 905.76 418.834 876.86 418.834H753.047ZM762.224 535.25C744.171 535.25 729.535 520.614 729.535 502.56C729.535 484.506 744.171 469.87 762.224 469.87C780.279 469.87 794.914 484.506 794.914 502.56C794.914 520.614 780.279 535.25 762.224 535.25Z" fill="white"/>
</g>
<defs>
<clipPath id="clip0_8422_514">
<rect width="929" height="900" fill="white"/>
</clipPath>
</defs>
</svg>
