<svg width="20" height="20" viewBox="0 0 20 20" fill="none" xmlns="http://www.w3.org/2000/svg">
<g id="seat-belt 1" clip-path="url(#clip0_2444_27)">
<path id="Vector" d="M19.9999 4.427V4.57271C19.9731 4.73755 19.912 4.86776 19.8167 4.96333C19.1805 5.60005 18.5434 6.23716 17.9054 6.87466C17.903 6.87708 17.9011 6.87993 17.8998 6.88307C17.8985 6.88621 17.8978 6.88956 17.8978 6.89294C17.8978 6.89632 17.8985 6.89965 17.8998 6.90275C17.9011 6.90585 17.903 6.90865 17.9054 6.91099C18.0491 7.05357 18.212 7.20669 18.3136 7.36802C18.6511 7.90474 18.5691 8.58638 18.1269 9.04536C17.8812 9.30044 17.5941 9.62036 17.2944 9.76802C16.6554 10.0833 16.0933 9.86685 15.6144 9.39029C15.6046 9.38054 15.5914 9.37506 15.5776 9.37505H13.9862C13.976 9.37505 13.9661 9.37913 13.9589 9.38638C13.3842 9.95982 12.811 10.533 12.2394 11.1059C11.896 11.4497 11.4523 11.6106 10.9999 11.3852C10.8835 11.3274 10.7101 11.1834 10.4796 10.9532C9.98194 10.4563 9.48481 9.95891 8.98819 9.46099C8.79679 9.26906 8.67556 9.1244 8.62452 9.02701C8.41788 8.63365 8.50538 8.15591 8.82296 7.83677C9.41905 7.23833 10.0154 6.64016 10.612 6.04224C10.6164 6.03791 10.6198 6.03275 10.6221 6.02705C10.6245 6.02136 10.6257 6.01523 10.6257 6.00904C10.6239 5.47805 10.6239 4.94992 10.6257 4.42466C10.6257 4.40096 10.6093 4.37466 10.5765 4.34575C10.0937 3.92036 9.93858 3.24341 10.2487 2.66841C10.3112 2.55279 10.4345 2.40148 10.6187 2.2145C10.796 2.03482 10.996 1.8106 11.1987 1.68911C11.6592 1.41281 12.1263 1.40604 12.6003 1.6688C12.7816 1.76919 12.9401 1.94654 13.0933 2.09966C13.1029 2.1093 13.1125 2.10917 13.1222 2.09927C13.7287 1.48859 14.3377 0.88065 14.9491 0.275442C15.3526 -0.123777 15.7198 -0.0565898 16.096 0.319582C17.3444 1.56802 18.5929 2.81646 19.8413 4.0649C19.9202 4.14406 19.9731 4.26476 19.9999 4.427ZM15.5224 0.683477C15.5173 0.678349 15.5103 0.675469 15.5031 0.675469C15.4958 0.675469 15.4889 0.678349 15.4837 0.683477L12.8857 3.28154C12.8806 3.28667 12.8777 3.29363 12.8777 3.30088C12.8777 3.30813 12.8806 3.31508 12.8857 3.32021L16.6798 7.11428C16.6849 7.11941 16.6918 7.12229 16.6991 7.12229C16.7063 7.12229 16.7133 7.11941 16.7184 7.11428L19.3165 4.51622C19.3216 4.51109 19.3245 4.50413 19.3245 4.49688C19.3245 4.48963 19.3216 4.48268 19.3165 4.47755L15.5224 0.683477ZM10.9155 2.8688C10.6292 3.2145 10.7456 3.57271 11.03 3.85708C12.7224 5.54953 14.4148 7.24198 16.1069 8.93443C16.2332 9.06073 16.3409 9.14328 16.43 9.18208C16.9241 9.39654 17.2234 9.00435 17.5394 8.68599C18.0292 8.19263 17.9171 7.8063 17.4261 7.37701C17.4215 7.37306 17.4156 7.37106 17.4096 7.37142C17.4036 7.37179 17.398 7.37449 17.3941 7.37896C17.1405 7.66411 16.8519 7.91685 16.4538 7.7524C16.3588 7.71307 16.2299 7.61216 16.0671 7.44966C14.8819 6.26398 13.6965 5.07831 12.5109 3.89263C12.3715 3.75357 12.2835 3.63898 12.2468 3.54888C12.0847 3.15357 12.3327 2.85396 12.6206 2.60747C12.6231 2.60528 12.6251 2.60262 12.6266 2.59963C12.628 2.59665 12.6288 2.59342 12.629 2.59011C12.6292 2.5868 12.6287 2.58349 12.6276 2.58037C12.6265 2.57725 12.6248 2.57438 12.6226 2.57193C12.3566 2.28013 12.0558 2.01333 11.6413 2.20318C11.4284 2.30083 11.0585 2.69575 10.9155 2.8688ZM11.1538 10.6719C11.3808 10.895 11.5398 10.8583 11.7597 10.6379C12.373 10.0234 12.9873 9.40969 13.6026 8.79693C13.6472 8.7524 13.7487 8.7106 13.7987 8.7106C14.1704 8.71112 14.5409 8.71112 14.9105 8.7106C14.9125 8.71064 14.9146 8.71004 14.9163 8.70889C14.918 8.70773 14.9194 8.70607 14.9202 8.70411C14.921 8.70215 14.9212 8.69998 14.9208 8.69786C14.9204 8.69575 14.9194 8.6938 14.9179 8.69224L11.3073 5.08208C11.3058 5.08061 11.3038 5.0796 11.3017 5.07919C11.2996 5.07878 11.2974 5.07899 11.2955 5.07978C11.2935 5.08057 11.2918 5.08192 11.2907 5.08365C11.2895 5.08538 11.2889 5.08742 11.289 5.0895C11.2892 5.43898 11.2891 5.78911 11.2886 6.13989C11.2886 6.23638 11.2612 6.34107 11.1987 6.40357C10.5766 7.0257 9.9546 7.64784 9.33273 8.26997C9.1171 8.48521 9.13116 8.65318 9.34757 8.87193C9.94523 9.47661 10.5473 10.0766 11.1538 10.6719Z" fill="white" fill-opacity="0.7" class="seat-belt active" :class="{ active: data.seatbelt }"/>
<path id="Vector_2" d="M12.6225 7.84542C12.7499 7.97326 12.8213 8.14646 12.821 8.32693C12.8207 8.5074 12.7487 8.68036 12.6209 8.80775L11.9142 9.51197C11.7863 9.63935 11.6131 9.71074 11.4327 9.71043C11.2522 9.71011 11.0792 9.63812 10.9519 9.51029L10.4875 9.04433C10.3601 8.91649 10.2887 8.74329 10.2891 8.56282C10.2894 8.38235 10.3614 8.20939 10.4892 8.082L11.1959 7.37779C11.3237 7.2504 11.4969 7.17901 11.6774 7.17932C11.8579 7.17964 12.0308 7.25163 12.1582 7.37947L12.6225 7.84542ZM11.6964 7.86153C11.6938 7.85891 11.6907 7.85683 11.6873 7.85541C11.6839 7.85399 11.6803 7.85326 11.6766 7.85325C11.6729 7.85325 11.6692 7.85397 11.6658 7.85538C11.6624 7.85678 11.6593 7.85885 11.6567 7.86146L10.9732 8.54251C10.9706 8.54512 10.9685 8.54822 10.9671 8.55163C10.9657 8.55504 10.965 8.55869 10.9649 8.56239C10.9649 8.56608 10.9657 8.56974 10.9671 8.57315C10.9685 8.57657 10.9705 8.57967 10.9732 8.58229L11.416 9.02666C11.4186 9.02928 11.4217 9.03136 11.4251 9.03277C11.4285 9.03419 11.4322 9.03493 11.4358 9.03493C11.4395 9.03494 11.4432 9.03422 11.4466 9.03281C11.45 9.0314 11.4531 9.02934 11.4558 9.02673L12.1392 8.34568C12.1418 8.34307 12.1439 8.33997 12.1453 8.33656C12.1467 8.33315 12.1475 8.3295 12.1475 8.3258C12.1475 8.32211 12.1467 8.31845 12.1453 8.31503C12.1439 8.31162 12.1419 8.30852 12.1393 8.3059L11.6964 7.86153Z" fill="white" fill-opacity="0.7" class="seat-belt active" :class="{ active: data.seatbelt }"/>
<path id="Vector_3" d="M2.63438 19.9999H2.52813C2.35807 19.9752 2.23242 19.9222 2.15117 19.841C1.48659 19.1774 0.822526 18.5134 0.158984 17.8488C0.077474 17.767 0.0244792 17.6432 0 17.4773V17.3511C0.0260417 17.1803 0.0936198 17.0403 0.202734 16.9312C0.825911 16.3078 1.45794 15.6759 2.09883 15.0355C2.10263 15.0317 2.1048 15.0266 2.10487 15.0213C2.10494 15.016 2.10291 15.0108 2.09922 15.007C2.00729 14.9127 1.91589 14.8166 1.825 14.7187C1.32148 14.1753 1.21797 13.3652 1.60859 12.7304C1.67734 12.6187 1.83932 12.4346 2.09453 12.1781C3.26771 10.9989 4.44362 9.82247 5.62227 8.64877C5.96914 8.30346 6.39141 8.13939 6.85234 8.3765C6.96797 8.43614 7.1319 8.57208 7.34414 8.78432C8.70872 10.1489 10.0733 11.5137 11.4379 12.8788C11.8449 13.2859 11.8125 13.9218 11.4133 14.323C10.9143 14.824 9.70664 16.0318 7.79023 17.9464C7.66758 18.0691 7.47969 18.255 7.3207 18.3585C6.77187 18.716 6.05547 18.7144 5.50898 18.3613C5.32891 18.2449 5.1582 18.0718 5.0043 17.9074C5.00149 17.9043 4.99808 17.9018 4.99426 17.9001C4.99045 17.8984 4.98632 17.8974 4.98212 17.8974C4.97792 17.8973 4.97374 17.8981 4.96983 17.8997C4.96592 17.9012 4.96237 17.9036 4.95937 17.9066C4.34245 18.5245 3.72174 19.1447 3.09727 19.7671C2.96445 19.8997 2.81016 19.9773 2.63438 19.9999ZM6.22539 10.9187C5.86602 10.2113 6.42422 9.75072 6.87422 9.30775C6.8888 9.29343 6.88906 9.27885 6.875 9.264C6.65078 9.02689 6.44531 8.76517 6.12734 9.08275C4.9125 10.2968 3.69818 11.5113 2.48438 12.7261C2.30573 12.905 2.19102 13.0433 2.14023 13.141C1.94023 13.5269 2.03906 14.0058 2.3418 14.3085C3.42018 15.388 4.49909 16.467 5.57852 17.5456C5.81641 17.7831 6.00781 17.9316 6.31875 17.9585C6.62552 17.9851 6.89141 17.8867 7.11641 17.6632C8.37318 16.4135 9.62813 15.1618 10.8813 13.9081C11.2227 13.5671 11.0203 13.3769 10.7277 13.1226C10.7176 13.1137 10.7077 13.1143 10.698 13.1242C10.491 13.3359 10.2297 13.648 9.96562 13.7706C9.52187 13.9772 9.11901 13.8993 8.75703 13.537C8.06771 12.8477 7.37839 12.1585 6.68906 11.4695C6.4401 11.2208 6.28555 11.0372 6.22539 10.9187ZM10.2305 12.6128L7.38047 9.77299C7.37825 9.77073 7.37561 9.76894 7.37269 9.76772C7.36977 9.76649 7.36664 9.76586 7.36348 9.76586C7.36031 9.76586 7.35718 9.76649 7.35426 9.76772C7.35135 9.76894 7.3487 9.77073 7.34648 9.77299L6.90781 10.2132C6.87277 10.2484 6.84518 10.2903 6.82661 10.3366C6.80803 10.3828 6.79885 10.4325 6.79957 10.4828C6.8003 10.5331 6.81092 10.583 6.83083 10.6296C6.85075 10.6762 6.87956 10.7187 6.91562 10.7546L9.25039 13.0812C9.28642 13.1171 9.32901 13.1458 9.37572 13.1655C9.42243 13.1853 9.47235 13.1957 9.52263 13.1962C9.5729 13.1968 9.62255 13.1874 9.66873 13.1687C9.71492 13.15 9.75673 13.1222 9.7918 13.087L10.2305 12.6468C10.2327 12.6446 10.2345 12.642 10.2357 12.639C10.237 12.6361 10.2376 12.633 10.2376 12.6298C10.2376 12.6267 10.237 12.6235 10.2357 12.6206C10.2345 12.6177 10.2327 12.615 10.2305 12.6128ZM2.60358 15.5054C2.60195 15.5038 2.60002 15.5025 2.59789 15.5016C2.59575 15.5007 2.59347 15.5003 2.59116 15.5003C2.58885 15.5003 2.58657 15.5007 2.58443 15.5016C2.5823 15.5025 2.58036 15.5038 2.57872 15.5054L0.678934 17.3986C0.677298 17.4002 0.676 17.4021 0.675113 17.4043C0.674226 17.4064 0.673768 17.4087 0.673764 17.411C0.67376 17.4133 0.67421 17.4156 0.67509 17.4177C0.67597 17.4198 0.677261 17.4218 0.678891 17.4234L2.56986 19.321C2.57148 19.3226 2.57342 19.3239 2.57555 19.3248C2.57768 19.3257 2.57997 19.3262 2.58228 19.3262C2.58458 19.3262 2.58687 19.3257 2.58901 19.3248C2.59114 19.324 2.59308 19.3227 2.59471 19.321L4.4945 17.4279C4.49614 17.4262 4.49744 17.4243 4.49832 17.4222C4.49921 17.42 4.49967 17.4178 4.49967 17.4155C4.49968 17.4131 4.49923 17.4109 4.49835 17.4087C4.49747 17.4066 4.49618 17.4047 4.49455 17.403L2.60358 15.5054Z" fill="white" fill-opacity="0.7" class="seat-belt active" :class="{ active: data.seatbelt }"/>
</g>
<defs>
<clipPath id="clip0_2444_27">
<rect width="20" height="20" fill="white"/>
</clipPath>
</defs>
</svg>
